<?xml version="1.0" standalone="no"?>
<!DOCTYPE svg PUBLIC "-//W3C//DTD SVG 20010904//EN"
 "http://www.w3.org/TR/2001/REC-SVG-20010904/DTD/svg10.dtd">
<svg version="1.0" xmlns="http://www.w3.org/2000/svg"
 width="150.000000pt" height="150.000000pt" viewBox="0 0 150.000000 150.000000"
 preserveAspectRatio="xMidYMid meet">
<metadata>
Created by potrace 1.11, written by Peter Selinger 2001-2013
</metadata>
<g transform="translate(0.000000,150.000000) scale(0.100000,-0.100000)"
fill="#000000" stroke="none">
<path d="M379 1440 c-24 -33 -47 -60 -51 -60 -4 0 -5 -6 -3 -13 3 -6 -4 -18
-16 -25 -25 -16 -37 -8 -19 13 21 25 -1 17 -25 -9 -13 -14 -26 -22 -29 -18
-12 11 -25 -22 -19 -47 4 -17 2 -22 -6 -17 -12 8 -44 -18 -35 -27 3 -3 -1 -16
-10 -29 -8 -13 -17 -33 -19 -43 -2 -11 -7 -28 -12 -38 -10 -25 2 -34 26 -19
18 11 18 11 7 -8 -7 -11 -15 -20 -18 -20 -30 0 -66 -195 -69 -380 -1 -58 -4
-123 -6 -145 -11 -87 16 -290 51 -379 6 -17 4 -18 -19 -12 -16 4 -42 0 -67
-10 l-40 -16 0 -69 0 -69 158 0 159 0 12 55 c7 30 17 55 22 55 17 0 1 103 -21
130 -44 56 -72 112 -88 179 -16 64 -19 70 -39 64 -15 -3 -23 -1 -23 7 0 7 7
10 14 7 11 -4 13 -1 9 10 -5 12 -2 15 10 10 11 -4 14 -2 11 8 -3 7 -14 15 -25
18 -25 7 -25 27 0 34 22 6 19 22 -11 63 -21 30 -38 127 -20 116 16 -9 15 9 0
35 -11 17 -10 22 9 37 16 12 24 32 29 67 3 28 8 57 11 65 4 8 7 20 8 25 0 6 4
17 7 25 13 31 15 70 4 70 -6 0 -5 4 3 9 21 14 5 44 -19 36 -12 -4 -20 -2 -20
6 0 8 11 10 33 6 26 -4 36 -1 45 14 16 25 15 29 -5 23 -13 -4 -11 0 6 15 13
12 32 21 42 21 10 0 19 4 19 9 0 5 14 14 31 20 17 6 33 20 36 31 4 16 13 20
41 18 24 -2 36 -8 40 -20 2 -10 13 -18 23 -18 10 0 21 -4 24 -10 3 -5 16 -10
27 -10 12 0 36 -11 54 -25 18 -14 37 -25 43 -25 6 0 16 -9 23 -20 7 -11 21
-20 31 -20 10 0 20 -7 23 -15 4 -8 14 -15 23 -16 31 -1 63 -58 79 -141 17 -91
16 -94 -55 -117 -30 -10 -49 -23 -51 -33 -4 -19 26 -25 43 -9 17 15 85 23 85
11 0 -7 -9 -14 -20 -17 -11 -3 -20 -9 -20 -13 0 -7 -53 -30 -68 -30 -2 0 2 8
9 18 11 14 9 13 -9 -2 -12 -11 -20 -21 -17 -24 3 -3 0 -11 -6 -19 -9 -10 -6
-13 17 -12 16 0 23 3 16 6 -10 4 -10 8 -1 19 18 22 32 16 27 -11 -4 -17 0 -26
12 -30 9 -3 26 -14 38 -26 22 -20 22 -24 16 -186 -5 -112 -12 -181 -23 -212
-20 -55 -41 -66 -41 -21 0 27 -3 30 -20 25 -19 -6 -19 -4 -8 22 6 15 15 33 19
38 13 19 -7 47 -44 60 -41 14 -49 3 -25 -35 7 -10 9 -22 5 -26 -4 -4 -56 -8
-116 -8 -92 -1 -105 -3 -90 -14 11 -7 23 -11 28 -7 5 3 12 1 16 -5 3 -5 24
-10 47 -10 38 0 40 -1 34 -25 -6 -23 -4 -25 29 -25 20 0 45 5 57 11 27 14 35
3 14 -19 -9 -11 -18 -36 -20 -58 -5 -51 -15 -74 -32 -74 -8 0 -14 -5 -14 -11
0 -11 16 -9 53 6 14 6 17 2 17 -26 0 -19 3 -44 6 -57 l6 -22 374 0 374 0 -1
33 c0 17 -4 80 -8 139 -7 104 -8 109 -39 136 -36 33 -81 125 -52 107 13 -8 13
-3 -11 90 -11 44 -21 94 -23 110 -10 94 -42 245 -61 290 -8 17 -19 53 -25 80
-19 83 -61 195 -91 243 -16 25 -29 51 -29 57 0 18 -61 96 -71 90 -5 -4 -6 0
-3 8 5 15 -21 31 -36 22 -4 -3 -7 3 -6 12 0 9 -10 23 -24 30 -14 7 -21 13 -16
13 5 0 -3 9 -17 20 -24 19 -40 20 -294 19 l-269 0 -45 -59z"/>
<path d="M685 782 c-28 -20 -39 -50 -45 -124 -5 -60 -4 -88 6 -107 8 -14 14
-32 14 -38 0 -7 9 -13 19 -13 15 0 31 -18 31 -35 0 -1 -13 -5 -29 -7 -17 -2
-28 -1 -25 4 3 4 -1 8 -9 8 -14 0 -43 -27 -36 -34 11 -9 69 -14 69 -6 0 5 12
15 28 22 25 13 27 17 28 83 1 65 -11 137 -26 160 -4 6 -5 29 -4 53 3 41 -1 49
-21 34z"/>
</g>
</svg>
